PathFileType	4	(X/Y/Z)	C:\Git\research_data\Projects\torsion_deformities_healthy_kinematics\simulations\P01\pre\dynamic06_l\marker_experimental.trc
DataRate	CameraRate	NumFrames	NumMarkers	Units	OrigDataRate	OrigDataStartFrame	OrigNumFrames
200	200	10	34	mm	200	553	884
Frame#	Time	C7			T10			CLAV			STRN			RBAK			LASI			RASI			SACR			LT1			LT2			LT3			LS1			LS2			LS3			LHEE			LTOE			RT1			RT2			RT3			RS1			RS2			RS3			RHEE			RTOE			LKNE			LANK			RKNE			RANK			LAJC			LKJC			RAJC			RKJC			RHJC			LHJC		
		X1	Y1	Z1	X2	Y2	Z2	X3	Y3	Z3	X4	Y4	Z4	X5	Y5	Z5	X6	Y6	Z6	X7	Y7	Z7	X8	Y8	Z8	X9	Y9	Z9	X10	Y10	Z10	X11	Y11	Z11	X12	Y12	Z12	X13	Y13	Z13	X14	Y14	Z14	X15	Y15	Z15	X16	Y16	Z16	X17	Y17	Z17	X18	Y18	Z18	X19	Y19	Z19	X20	Y20	Z20	X21	Y21	Z21	X22	Y22	Z22	X23	Y23	Z23	X24	Y24	Z24	X25	Y25	Z25	X26	Y26	Z26	X27	Y27	Z27	X28	Y28	Z28	X29	Y29	Z29	X30	Y30	Z30	X31	Y31	Z31	X32	Y32	Z32	X33	Y33	Z33	X34	Y34	Z34	

553	2.760000	574.022522	1007.137573	-351.263641	545.440674	828.910645	-364.985596	690.818726	960.736633	-357.301941	739.243530	835.436584	-357.142914	556.080750	944.116150	-252.246811	697.461548	668.178894	-461.180328	665.237427	659.420166	-251.140488	532.157349	714.304810	-380.038239	722.903992	499.943176	-497.146545	694.175415	406.635223	-498.242554	822.131531	441.996643	-449.081085	782.005127	259.543457	-475.180450	711.896484	159.837601	-498.226624	845.238892	189.625168	-451.905457	766.059265	37.923080	-432.401642	903.679321	56.919693	-402.971497	571.809631	500.509705	-223.602707	496.962555	444.497894	-247.792206	627.844055	394.339478	-220.038727	494.182709	269.263306	-234.780075	372.506226	265.036102	-215.166656	480.108246	174.577866	-244.371964	298.569153	121.107353	-280.344788	412.659973	39.884636	-299.562561	757.047852	351.596832	-460.419128	814.417053	40.498192	-445.354248	539.131836	333.879364	-250.539566	335.550140	92.117752	-250.603531	813.482117	40.291553	-411.471497	757.628357	348.742462	-409.016998	338.468506	96.409943	-287.111725	551.226013	329.132874	-302.775970	601.451368	605.031827	-292.412124	624.931424	611.413860	-445.457327	
554	2.765000	580.873657	1007.181824	-352.074371	552.501099	828.830261	-365.258118	697.726685	960.909058	-358.078583	746.345398	835.716187	-357.596497	562.823486	944.313782	-253.005402	705.025940	668.215698	-461.180450	672.886597	659.101746	-251.767761	539.283142	714.019165	-379.854889	730.772888	500.279846	-496.926453	701.813904	407.030090	-498.157623	829.485840	441.880005	-448.365845	788.691895	259.555359	-474.448029	717.465698	161.576035	-499.154510	850.122131	188.346725	-450.356812	767.003418	38.489677	-432.502838	905.336609	53.733219	-402.339203	580.940735	499.620270	-223.526672	506.682892	442.652527	-247.054718	638.285828	394.051331	-219.793900	503.110443	269.198059	-233.844742	381.190033	268.105438	-215.355743	486.732330	174.861130	-243.129181	304.597992	126.786583	-280.101746	414.561707	39.774868	-299.183807	764.180542	351.798096	-460.069366	816.749512	39.864716	-444.956390	550.190491	332.476257	-249.534592	340.221680	96.020691	-250.339310	815.183533	39.541771	-411.097870	764.477844	348.924988	-408.665863	343.584869	100.061676	-286.837891	562.069031	327.639648	-301.812195	609.168904	604.858912	-293.021299	632.593608	611.501600	-445.651373	
555	2.770000	587.718262	1007.323486	-352.868347	559.531189	828.855896	-365.505981	704.621948	961.168152	-358.806213	753.396667	836.056702	-357.980835	569.535950	944.618591	-253.750107	712.471985	668.417542	-461.229431	680.459351	658.834656	-252.376419	546.346313	713.818970	-379.637543	738.544495	500.784424	-496.680939	709.420166	407.598633	-498.197632	836.724182	442.072662	-447.466583	795.252563	259.695648	-473.841919	723.099731	163.527267	-500.514374	854.815186	187.222748	-448.873413	767.794434	39.108448	-432.665131	906.727600	51.005993	-401.978729	590.197876	498.773926	-223.427032	516.626038	440.754059	-246.287262	648.994385	393.888367	-219.477921	512.415527	269.207062	-232.859848	390.326538	271.280701	-215.611374	493.746033	175.275833	-241.798676	311.170868	132.593887	-279.895355	416.848572	39.918678	-298.730743	771.323975	352.186096	-459.729767	818.985779	39.421833	-444.908447	561.623962	331.094452	-248.451645	345.372070	100.105858	-250.078491	816.691895	38.960598	-411.093018	771.236511	349.261139	-408.328400	349.203308	103.854034	-286.562195	573.307373	326.159302	-300.763977	616.811720	604.729442	-293.635826	640.149816	611.715631	-445.895451	
556	2.775000	594.554016	1007.561951	-353.641205	566.527771	828.987610	-365.728271	711.501831	961.511108	-359.478180	760.393799	836.455688	-358.291565	576.215271	945.029053	-254.477402	719.790710	668.796204	-461.333344	687.942871	658.621887	-252.950821	553.346008	713.707581	-379.386169	746.201233	501.444489	-496.421692	716.968506	408.332062	-498.371429	843.834473	442.551208	-446.408936	801.634705	259.920013	-473.376068	728.717712	165.583420	-502.232574	859.290894	186.223450	-447.487244	768.462402	39.751816	-432.878632	907.870789	48.756275	-401.845886	599.549988	497.987274	-223.301498	526.758484	438.833527	-245.507019	659.913513	393.864929	-219.076996	522.081299	269.301514	-231.835327	399.904175	274.546021	-215.908081	501.149200	175.828720	-240.406448	318.280670	138.477280	-279.730011	419.606659	40.382092	-298.184021	778.455994	352.744720	-459.416901	821.088196	39.132771	-445.171112	573.374329	329.767120	-247.299911	351.013123	104.354828	-249.821106	817.993774	38.526512	-411.421814	777.889648	349.734741	-408.023468	355.322357	107.775581	-286.283661	584.895752	324.724152	-299.637909	624.368339	604.640255	-294.246384	647.591106	612.059150	-446.194484	
557	2.780000	601.378906	1007.895691	-354.388947	573.488403	829.224670	-365.924347	718.363647	961.935181	-360.088715	767.334412	836.911255	-358.525238	582.858582	945.542725	-255.184555	726.975830	669.359253	-461.495911	695.326477	658.466736	-253.475357	560.282654	713.688110	-379.101288	753.724243	502.240356	-496.162903	724.422180	409.214081	-498.681763	850.800964	443.267303	-445.235718	807.782104	260.181732	-473.060699	734.220642	167.634384	-504.207062	863.521484	185.314651	-446.232422	769.030273	40.394588	-433.133392	908.790649	46.975006	-401.893372	608.965271	497.277130	-223.148636	537.044617	436.923706	-244.732285	670.984192	393.995026	-218.579727	532.088074	269.491425	-230.783234	409.904663	277.880157	-216.217316	508.939728	176.522903	-238.983597	325.914429	144.379318	-279.611694	422.924896	41.222126	-297.525177	785.536621	353.446716	-459.152496	823.016357	38.959377	-445.682739	585.378845	328.527588	-246.091522	357.154297	108.741737	-249.569626	819.082825	38.218224	-412.023621	784.413025	350.319061	-407.775299	361.937561	111.810654	-286.004364	596.783813	323.368042	-298.443634	631.828821	604.589137	-294.842566	654.910508	612.532985	-446.550727	
558	2.785000	608.190796	1008.322754	-355.108093	580.411438	829.565369	-366.093994	725.204651	962.437317	-360.632904	774.217468	837.422180	-358.679443	589.463074	946.156372	-255.869644	734.023743	670.108887	-461.718170	702.602112	658.372803	-253.935257	567.157593	713.763428	-378.784210	761.092896	503.146057	-495.920563	731.734802	410.221710	-499.124817	857.604370	444.152618	-444.004303	813.638306	260.436462	-472.901978	739.500732	169.579529	-506.320648	867.481079	184.462189	-445.143311	769.515320	41.015087	-433.419678	909.514771	45.629967	-402.076477	618.412048	496.660217	-222.967972	547.448364	435.058075	-243.981781	682.146606	394.292145	-217.977539	542.413513	269.785553	-229.717300	420.303040	281.256561	-216.509949	517.114380	177.357849	-237.564407	334.054535	150.238434	-279.547882	426.889954	42.479458	-296.738342	792.510254	354.255707	-458.961731	824.733704	38.865162	-446.368652	597.573059	327.407684	-244.840897	363.803528	113.231842	-249.329102	819.962585	38.015095	-412.820618	790.774048	350.979492	-407.610809	369.043671	115.937263	-285.729797	608.918518	322.125061	-297.193665	639.184972	604.575182	-295.413099	662.102893	613.135102	-446.963232	
559	2.790000	614.987915	1008.840393	-355.795624	587.295654	830.007324	-366.237396	732.022278	963.014587	-361.106812	781.043213	837.988098	-358.752777	596.025940	946.865845	-256.531555	740.933594	671.041931	-461.998413	709.764832	658.344055	-254.317429	573.973450	713.936096	-378.437164	768.285217	504.130859	-495.711304	738.852783	411.326813	-499.690094	864.223145	445.125519	-442.782928	819.149963	260.646057	-472.901886	744.451538	171.337509	-508.454620	871.147400	183.635635	-444.251831	769.929993	41.595886	-433.728302	910.071106	44.671707	-402.356812	627.859863	496.152588	-222.759979	557.934021	433.269440	-243.273666	693.342651	394.769104	-217.264893	553.033569	270.191376	-228.652252	431.067902	284.643372	-216.759140	525.669556	178.329468	-236.183762	342.680115	155.990372	-279.547089	431.580383	44.171383	-295.811920	799.309937	355.128845	-458.870941	826.211670	38.817360	-447.150635	609.893250	326.436615	-243.563843	370.968201	117.780647	-249.106781	820.645508	37.896992	-413.727173	796.934326	351.676514	-407.557190	376.636658	120.125198	-285.468292	621.246094	321.028107	-295.902161	646.430929	604.599049	-295.946359	669.165262	613.860814	-447.427789	
560	2.795000	621.768494	1009.445374	-356.449036	594.140747	830.547363	-366.355042	738.813843	963.664185	-361.507568	787.812805	838.609131	-358.744904	602.544800	947.666382	-257.169922	747.707336	672.149597	-462.332306	716.812744	658.385010	-254.611160	580.733643	714.208374	-378.063202	775.278503	505.160889	-495.551453	745.718811	412.497986	-500.361115	870.635437	446.098663	-441.646088	824.270020	260.781433	-473.058228	748.976868	172.852921	-510.500641	874.503174	182.811188	-443.585388	770.283325	42.124226	-434.050842	910.486084	44.040192	-402.703674	637.280334	495.769196	-222.526001	568.467468	431.588898	-242.624527	704.518066	395.437622	-216.439407	563.922668	270.714996	-227.602936	442.162201	288.004333	-216.943161	534.602051	179.430344	-234.874481	351.768219	161.570038	-279.617828	437.060791	46.286293	-294.739868	805.863098	356.019958	-458.905731	827.431458	38.788425	-447.956940	622.278748	325.639893	-242.276474	378.655243	122.333267	-248.911728	821.150574	37.844070	-414.661041	802.853088	352.369202	-407.639008	384.714752	124.334114	-285.230713	633.713806	320.107483	-294.583954	653.563121	604.663223	-296.430870	676.096800	614.702741	-447.937055	
561	2.800000	628.531067	1010.133911	-357.066315	600.946899	831.181519	-366.447876	745.577209	964.383179	-361.833466	794.528687	839.286072	-358.656555	609.017578	948.552551	-257.785004	754.349365	673.417969	-462.713074	723.747253	658.500732	-254.808655	587.442139	714.582153	-377.666290	782.050049	506.201324	-495.455780	752.276184	413.702759	-501.116241	876.820618	446.986481	-440.669159	828.960388	260.824371	-473.364502	752.998535	174.099426	-512.368652	877.537292	181.973282	-443.165100	770.581787	42.592110	-434.379791	910.784119	43.671143	-403.093414	646.648010	495.523529	-222.268005	579.017334	430.044708	-242.048294	715.624817	396.308075	-215.501968	575.054321	271.361206	-226.583511	453.544342	291.300018	-217.047958	543.908936	180.650177	-233.664566	361.294922	166.913315	-279.767120	443.377380	48.781166	-293.522858	812.098022	356.883209	-459.088684	828.384766	38.757298	-448.730194	634.675415	325.038635	-240.994202	386.870575	126.825500	-248.753891	821.500488	37.837318	-415.553131	808.491150	353.018646	-407.876190	393.278748	128.513123	-285.028900	646.272766	319.389984	-293.253479	660.580564	604.772049	-296.855652	682.898733	615.651214	-448.480677	
562	2.805000	635.274597	1010.901733	-357.645905	607.714783	831.905212	-366.517151	752.310181	965.168762	-362.083771	801.193909	840.019958	-358.489594	615.442566	949.518433	-258.377716	760.866638	674.828857	-463.132050	730.573120	658.696777	-254.905579	594.103760	715.058838	-377.251160	788.578308	507.218140	-495.436676	758.472351	414.909821	-501.929901	882.761230	447.711365	-439.922852	833.194092	260.767670	-473.810333	756.460144	175.078888	-513.990112	880.245544	181.115128	-443.004547	770.830750	42.996117	-434.708374	910.987671	43.501259	-403.507690	655.941040	495.426971	-221.988434	589.555786	428.661255	-241.555252	726.622131	397.388885	-214.456802	586.401978	272.133148	-225.606461	465.169739	294.490082	-217.068771	553.587891	181.976089	-232.574615	371.235840	171.959106	-279.999237	450.555664	51.583141	-292.169220	817.949219	357.676514	-459.436768	829.071899	38.710022	-449.430542	647.036438	324.649261	-239.730759	395.617767	131.186600	-248.642776	821.718018	37.859768	-416.352539	813.814636	353.590912	-408.281372	402.330750	132.602127	-284.874268	658.878723	318.897919	-291.923889	667.485185	604.931606	-297.210917	689.574688	616.694837	-449.046016	
